<?xml version="1.0" encoding="UTF-8"?>
<!DOCTYPE score-partwise PUBLIC "-//Recordare//DTD MusicXML 2.0 Partwise//EN"
                                "http://www.musicxml.org/dtds/partwise.dtd">
<score-partwise version="2.0">
  <identification>
    <rights>©</rights>
    <encoding>
      <software>Finale 2010 for Windows</software>
      <software>Dolet Light for Finale 2010</software>
      <encoding-date>2012-05-15</encoding-date>
      <supports attribute="new-system" element="print" type="yes" value="yes"/>
      <supports attribute="new-page" element="print" type="yes" value="yes"/>
    </encoding>
  </identification>
  <defaults>
    <scaling>
      <millimeters>7.1967</millimeters>
      <tenths>40</tenths>
    </scaling>
    <page-layout>
      <page-height>1553</page-height>
      <page-width>1200</page-width>
      <page-margins type="both">
        <left-margin>141</left-margin>
        <right-margin>70</right-margin>
        <top-margin>88</top-margin>
        <bottom-margin>88</bottom-margin>
      </page-margins>
    </page-layout>
    <system-layout>
      <system-margins>
        <left-margin>0</left-margin>
        <right-margin>0</right-margin>
      </system-margins>
      <system-distance>121</system-distance>
      <top-system-distance>70</top-system-distance>
    </system-layout>
    <staff-layout>
      <staff-distance>80</staff-distance>
    </staff-layout>
    <appearance>
      <line-width type="stem">0.7487</line-width>
      <line-width type="beam">5</line-width>
      <line-width type="staff">0.7487</line-width>
      <line-width type="light barline">0.7487</line-width>
      <line-width type="heavy barline">5</line-width>
      <line-width type="leger">0.7487</line-width>
      <line-width type="ending">1.4583</line-width>
      <line-width type="wedge">0.7487</line-width>
      <line-width type="enclosure">0.7487</line-width>
      <line-width type="tuplet bracket">0.7487</line-width>
      <note-size type="grace">60</note-size>
      <note-size type="cue">60</note-size>
    </appearance>
    <music-font font-family="Maestro" font-size="20.4"/>
    <word-font font-family="Times New Roman" font-size="10.2"/>
    <lyric-font font-family="Times New Roman" font-size="10.2" name="verse"/>
  </defaults>
  <credit page="1">
    <credit-words default-x="635" default-y="70" font-size="10" justify="center" valign="bottom">©</credit-words>
  </credit>
  <credit page="2">
    <credit-words default-x="141" default-y="1488" font-size="12" valign="top">2</credit-words>
  </credit>
  <credit page="3">
    <credit-words default-x="1129" default-y="1488" font-size="12" halign="right" valign="top">3</credit-words>
  </credit>
  <part-list>
    <score-part id="P1">
      <part-name>Flute</part-name>
      <part-abbreviation>Fl.</part-abbreviation>
      <score-instrument id="P1-I2">
        <instrument-name>Flute</instrument-name>
      </score-instrument>
      <midi-instrument id="P1-I2">
        <midi-channel>1</midi-channel>
        <midi-program>74</midi-program>
        <volume>80</volume>
        <pan>0</pan>
      </midi-instrument>
    </score-part>
    <score-part id="P2">
      <part-name>Trumpet in Bb</part-name>
      <part-abbreviation>Bb Tpt.</part-abbreviation>
      <score-instrument id="P2-I3">
        <instrument-name>Trumpet in Bb</instrument-name>
      </score-instrument>
      <midi-instrument id="P2-I3">
        <midi-channel>2</midi-channel>
        <midi-program>57</midi-program>
        <volume>80</volume>
        <pan>-34</pan>
      </midi-instrument>
    </score-part>
    <score-part id="P3">
      <part-name>Piano</part-name>
      <part-abbreviation>Pno.</part-abbreviation>
      <score-instrument id="P3-I4">
        <instrument-name>Piano</instrument-name>
      </score-instrument>
      <midi-instrument id="P3-I4">
        <midi-channel>3</midi-channel>
        <midi-program>1</midi-program>
        <volume>80</volume>
        <pan>0</pan>
      </midi-instrument>
    </score-part>
  </part-list>
  <!--=========================================================-->
  <part id="P1">
    <measure number="1" width="289">
      <print>
        <system-layout>
          <system-margins>
            <left-margin>70</left-margin>
            <right-margin>0</right-margin>
          </system-margins>
          <top-system-distance>172</top-system-distance>
        </system-layout>
      </print>
      <attributes>
        <divisions>24</divisions>
        <key>
          <fifths>0</fifths>
          <mode>major</mode>
        </key>
        <time>
          <beats>4</beats>
          <beat-type>4</beat-type>
        </time>
        <clef>
          <sign>G</sign>
          <line>2</line>
        </clef>
      </attributes>
      <sound tempo="120"/>
      <note default-x="121">
        <pitch>
          <step>C</step>
          <octave>5</octave>
        </pitch>
        <duration>24</duration>
        <voice>1</voice>
        <type>quarter</type>
        <stem default-y="-50">down</stem>
      </note>
      <note default-x="162">
        <pitch>
          <step>G</step>
          <octave>4</octave>
        </pitch>
        <duration>24</duration>
        <voice>1</voice>
        <type>quarter</type>
        <stem default-y="6">up</stem>
      </note>
      <note default-x="205">
        <pitch>
          <step>E</step>
          <octave>4</octave>
        </pitch>
        <duration>24</duration>
        <voice>1</voice>
        <type>quarter</type>
        <stem default-y="-5">up</stem>
      </note>
      <note default-x="246">
        <pitch>
          <step>C</step>
          <octave>4</octave>
        </pitch>
        <duration>24</duration>
        <voice>1</voice>
        <type>quarter</type>
        <stem default-y="-14.5">up</stem>
      </note>
    </measure>
    <!--=======================================================-->
    <measure number="2" width="278">
      <note default-x="15">
        <pitch>
          <step>G</step>
          <octave>5</octave>
        </pitch>
        <duration>24</duration>
        <voice>1</voice>
        <type>quarter</type>
        <stem default-y="-30">down</stem>
      </note>
      <note default-x="63">
        <pitch>
          <step>E</step>
          <octave>5</octave>
        </pitch>
        <duration>24</duration>
        <voice>1</voice>
        <type>quarter</type>
        <stem default-y="-40.5">down</stem>
      </note>
      <note default-x="111">
        <pitch>
          <step>C</step>
          <octave>5</octave>
        </pitch>
        <duration>24</duration>
        <voice>1</voice>
        <type>quarter</type>
        <stem default-y="-50">down</stem>
      </note>
      <note default-x="218">
        <pitch>
          <step>G</step>
          <octave>4</octave>
        </pitch>
        <duration>24</duration>
        <voice>1</voice>
        <type>quarter</type>
        <stem default-y="6">up</stem>
      </note>
    </measure>
    <!--=======================================================-->
    <measure number="3" width="352">
      <note default-x="26">
        <pitch>
          <step>F</step>
          <octave>4</octave>
        </pitch>
        <duration>12</duration>
        <voice>1</voice>
        <type>eighth</type>
        <stem default-y="-70">down</stem>
        <beam number="1">begin</beam>
        <lyric default-y="-80" number="1">
          <syllabic>single</syllabic>
          <text>Let's</text>
        </lyric>
      </note>
      <note default-x="67">
        <pitch>
          <step>A</step>
          <octave>4</octave>
        </pitch>
        <duration>12</duration>
        <voice>1</voice>
        <type>eighth</type>
        <stem default-y="-68">down</stem>
        <beam number="1">continue</beam>
        <lyric default-y="-80" number="1">
          <syllabic>begin</syllabic>
          <text>en</text>
        </lyric>
      </note>
      <note default-x="106">
        <pitch>
          <step>C</step>
          <octave>5</octave>
        </pitch>
        <duration>12</duration>
        <voice>1</voice>
        <type>eighth</type>
        <stem default-y="-66.5">down</stem>
        <beam number="1">continue</beam>
        <lyric default-y="-80" number="1">
          <syllabic>end</syllabic>
          <text>ter</text>
        </lyric>
      </note>
      <note default-x="148">
        <pitch>
          <step>E</step>
          <octave>5</octave>
        </pitch>
        <duration>12</duration>
        <voice>1</voice>
        <type>eighth</type>
        <stem default-y="-65">down</stem>
        <beam number="1">end</beam>
        <lyric default-y="-80" number="1">
          <syllabic>single</syllabic>
          <text>some</text>
        </lyric>
      </note>
      <note default-x="189">
        <pitch>
          <step>D</step>
          <octave>5</octave>
        </pitch>
        <duration>12</duration>
        <voice>1</voice>
        <type>eighth</type>
        <stem default-y="-50">down</stem>
        <beam number="1">begin</beam>
        <lyric default-y="-80" number="1">
          <syllabic>begin</syllabic>
          <text>ly</text>
        </lyric>
      </note>
      <note default-x="229">
        <pitch>
          <step>B</step>
          <octave>4</octave>
        </pitch>
        <duration>12</duration>
        <voice>1</voice>
        <type>eighth</type>
        <stem default-y="-55">down</stem>
        <beam number="1">end</beam>
        <lyric default-y="-80" number="1">
          <syllabic>end</syllabic>
          <text>rics</text>
        </lyric>
      </note>
      <note default-x="270">
        <pitch>
          <step>G</step>
          <octave>4</octave>
        </pitch>
        <duration>12</duration>
        <voice>1</voice>
        <type>eighth</type>
        <stem default-y="6">up</stem>
        <lyric default-y="-80" number="1">
          <syllabic>single</syllabic>
          <text>here</text>
          <extend/>
        </lyric>
      </note>
      <note default-x="311">
        <pitch>
          <step>F</step>
          <octave>4</octave>
        </pitch>
        <duration>12</duration>
        <voice>1</voice>
        <type>eighth</type>
        <stem default-y="0">up</stem>
      </note>
    </measure>
    <!--=======================================================-->
    <measure number="4" width="458">
      <print new-system="yes">
        <system-layout>
          <system-distance>114</system-distance>
        </system-layout>
      </print>
      <note default-x="100">
        <pitch>
          <step>E</step>
          <octave>4</octave>
        </pitch>
        <duration>6</duration>
        <voice>1</voice>
        <type>16th</type>
        <stem default-y="-5">up</stem>
        <beam number="1">begin</beam>
        <beam number="2">begin</beam>
        <lyric default-y="-80" number="1">
          <syllabic>single</syllabic>
          <text>now</text>
        </lyric>
      </note>
      <note default-x="139">
        <pitch>
          <step>C</step>
          <octave>4</octave>
        </pitch>
        <duration>6</duration>
        <voice>1</voice>
        <type>16th</type>
        <stem default-y="-5">up</stem>
        <beam number="1">continue</beam>
        <beam number="2">continue</beam>
        <lyric default-y="-80" number="1">
          <syllabic>single</syllabic>
          <text>we</text>
        </lyric>
      </note>
      <note default-x="180">
        <pitch>
          <step>D</step>
          <octave>4</octave>
        </pitch>
        <duration>6</duration>
        <voice>1</voice>
        <type>16th</type>
        <stem default-y="-5">up</stem>
        <beam number="1">continue</beam>
        <beam number="2">continue</beam>
        <lyric default-y="-80" number="1">
          <syllabic>single</syllabic>
          <text>have</text>
        </lyric>
      </note>
      <note default-x="216">
        <pitch>
          <step>E</step>
          <octave>4</octave>
        </pitch>
        <duration>6</duration>
        <voice>1</voice>
        <type>16th</type>
        <stem default-y="-5">up</stem>
        <beam number="1">end</beam>
        <beam number="2">end</beam>
        <lyric default-y="-80" number="1">
          <syllabic>single</syllabic>
          <text>a</text>
        </lyric>
      </note>
      <note default-x="248">
        <pitch>
          <step>F</step>
          <octave>4</octave>
        </pitch>
        <duration>6</duration>
        <voice>1</voice>
        <type>16th</type>
        <stem default-y="-5">up</stem>
        <beam number="1">begin</beam>
        <beam number="2">begin</beam>
        <lyric default-y="-80" number="1">
          <syllabic>single</syllabic>
          <text>long</text>
          <extend/>
        </lyric>
      </note>
      <note default-x="282">
        <pitch>
          <step>E</step>
          <octave>4</octave>
        </pitch>
        <duration>6</duration>
        <voice>1</voice>
        <type>16th</type>
        <stem default-y="-6">up</stem>
        <beam number="1">continue</beam>
        <beam number="2">continue</beam>
      </note>
      <note default-x="301">
        <pitch>
          <step>D</step>
          <octave>4</octave>
        </pitch>
        <duration>6</duration>
        <voice>1</voice>
        <type>16th</type>
        <stem default-y="-7">up</stem>
        <beam number="1">continue</beam>
        <beam number="2">continue</beam>
      </note>
      <note default-x="321">
        <pitch>
          <step>E</step>
          <octave>4</octave>
        </pitch>
        <duration>6</duration>
        <voice>1</voice>
        <type>16th</type>
        <stem default-y="-7">up</stem>
        <beam number="1">end</beam>
        <beam number="2">end</beam>
      </note>
      <note default-x="348">
        <pitch>
          <step>C</step>
          <octave>4</octave>
        </pitch>
        <duration>12</duration>
        <voice>1</voice>
        <type>eighth</type>
        <stem default-y="15">up</stem>
        <beam number="1">begin</beam>
        <lyric default-y="-80" number="1">
          <syllabic>begin</syllabic>
          <text>mel</text>
        </lyric>
      </note>
      <note default-x="376">
        <pitch>
          <step>E</step>
          <octave>4</octave>
        </pitch>
        <duration>12</duration>
        <voice>1</voice>
        <type>eighth</type>
        <stem default-y="17">up</stem>
        <beam number="1">continue</beam>
        <lyric default-y="-80" number="1">
          <syllabic>middle</syllabic>
          <text>is</text>
        </lyric>
      </note>
      <note default-x="402">
        <pitch>
          <step>G</step>
          <octave>4</octave>
        </pitch>
        <duration>12</duration>
        <voice>1</voice>
        <type>eighth</type>
        <stem default-y="18">up</stem>
        <beam number="1">continue</beam>
        <lyric default-y="-80" number="1">
          <syllabic>end</syllabic>
          <text>ma</text>
        </lyric>
      </note>
      <note default-x="433">
        <pitch>
          <step>C</step>
          <octave>5</octave>
        </pitch>
        <duration>12</duration>
        <voice>1</voice>
        <type>eighth</type>
        <stem default-y="20">up</stem>
        <beam number="1">end</beam>
      </note>
    </measure>
    <!--=======================================================-->
    <measure number="5" width="274">
      <direction directive="yes" placement="above">
        <direction-type>
          <words default-y="40" font-size="12" font-weight="bold">Adagio</words>
        </direction-type>
      </direction>
      <note default-x="14">
        <pitch>
          <step>C</step>
          <octave>5</octave>
        </pitch>
        <duration>8</duration>
        <voice>1</voice>
        <type>eighth</type>
        <time-modification>
          <actual-notes>3</actual-notes>
          <normal-notes>2</normal-notes>
        </time-modification>
        <stem default-y="20">up</stem>
        <beam number="1">begin</beam>
        <notations>
          <tuplet number="1" placement="above" type="start"/>
        </notations>
      </note>
      <note default-x="33">
        <pitch>
          <step>G</step>
          <octave>4</octave>
        </pitch>
        <duration>8</duration>
        <voice>1</voice>
        <type>eighth</type>
        <time-modification>
          <actual-notes>3</actual-notes>
          <normal-notes>2</normal-notes>
        </time-modification>
        <stem default-y="17.5">up</stem>
        <beam number="1">continue</beam>
      </note>
      <note default-x="52">
        <pitch>
          <step>E</step>
          <octave>4</octave>
        </pitch>
        <duration>8</duration>
        <voice>1</voice>
        <type>eighth</type>
        <time-modification>
          <actual-notes>3</actual-notes>
          <normal-notes>2</normal-notes>
        </time-modification>
        <stem default-y="15">up</stem>
        <beam number="1">end</beam>
        <notations>
          <tuplet number="1" type="stop"/>
        </notations>
      </note>
      <note default-x="74">
        <pitch>
          <step>C</step>
          <octave>4</octave>
        </pitch>
        <duration>12</duration>
        <voice>1</voice>
        <type>eighth</type>
        <stem default-y="-10">up</stem>
        <beam number="1">begin</beam>
      </note>
      <note default-x="98">
        <pitch>
          <step>E</step>
          <octave>4</octave>
        </pitch>
        <duration>12</duration>
        <voice>1</voice>
        <type>eighth</type>
        <stem default-y="-7">up</stem>
        <beam number="1">end</beam>
      </note>
      <note default-x="122">
        <pitch>
          <step>D</step>
          <octave>4</octave>
        </pitch>
        <duration>12</duration>
        <voice>1</voice>
        <type>eighth</type>
        <stem default-y="0">up</stem>
        <beam number="1">begin</beam>
      </note>
      <note default-x="159">
        <pitch>
          <step>G</step>
          <octave>4</octave>
        </pitch>
        <duration>12</duration>
        <voice>1</voice>
        <type>eighth</type>
        <stem default-y="5">up</stem>
        <beam number="1">end</beam>
      </note>
      <note default-x="195">
        <pitch>
          <step>F</step>
          <octave>4</octave>
        </pitch>
        <duration>18</duration>
        <voice>1</voice>
        <type>eighth</type>
        <dot/>
        <stem default-y="-5">up</stem>
        <beam number="1">begin</beam>
      </note>
      <note default-x="249">
        <pitch>
          <step>D</step>
          <octave>4</octave>
        </pitch>
        <duration>6</duration>
        <voice>1</voice>
        <type>16th</type>
        <stem default-y="-7">up</stem>
        <beam number="1">end</beam>
        <beam number="2">backward hook</beam>
      </note>
      <barline location="right">
        <bar-style>light-light</bar-style>
      </barline>
    </measure>
    <!--=======================================================-->
    <measure number="6" width="257">
      <note default-x="16">
        <pitch>
          <step>C</step>
          <octave>4</octave>
        </pitch>
        <duration>21</duration>
        <voice>1</voice>
        <type>eighth</type>
        <dot/>
        <dot/>
        <stem default-y="-7">up</stem>
        <beam number="1">begin</beam>
      </note>
      <note default-x="56">
        <pitch>
          <step>D</step>
          <octave>4</octave>
        </pitch>
        <duration>3</duration>
        <voice>1</voice>
        <type>32nd</type>
        <stem default-y="-5">up</stem>
        <beam number="1">end</beam>
        <beam number="2">backward hook</beam>
        <beam number="3">backward hook</beam>
      </note>
      <note default-x="74">
        <pitch>
          <step>E</step>
          <octave>4</octave>
        </pitch>
        <duration>12</duration>
        <voice>1</voice>
        <type>eighth</type>
        <stem default-y="-10">up</stem>
        <beam number="1">begin</beam>
      </note>
      <note default-x="111">
        <pitch>
          <step>F</step>
          <octave>4</octave>
        </pitch>
        <duration>12</duration>
        <voice>1</voice>
        <type>eighth</type>
        <stem default-y="-7">up</stem>
        <beam number="1">end</beam>
      </note>
      <note default-x="148">
        <pitch>
          <step>G</step>
          <octave>4</octave>
        </pitch>
        <duration>12</duration>
        <voice>1</voice>
        <type>eighth</type>
        <stem default-y="15">up</stem>
        <beam number="1">begin</beam>
      </note>
      <note default-x="179">
        <pitch>
          <step>A</step>
          <alter>-1</alter>
          <octave>4</octave>
        </pitch>
        <duration>12</duration>
        <voice>1</voice>
        <type>eighth</type>
        <accidental>flat</accidental>
        <stem default-y="17">up</stem>
        <beam number="1">continue</beam>
      </note>
      <note default-x="209">
        <pitch>
          <step>B</step>
          <alter>-1</alter>
          <octave>4</octave>
        </pitch>
        <duration>12</duration>
        <voice>1</voice>
        <type>eighth</type>
        <accidental>flat</accidental>
        <stem default-y="19">up</stem>
        <beam number="1">continue</beam>
      </note>
      <note default-x="233">
        <pitch>
          <step>C</step>
          <octave>5</octave>
        </pitch>
        <duration>12</duration>
        <voice>1</voice>
        <type>eighth</type>
        <stem default-y="20">up</stem>
        <beam number="1">end</beam>
      </note>
    </measure>
    <!--=======================================================-->
    <measure number="7" width="271">
      <print new-page="yes"/>
      <note default-x="102">
        <pitch>
          <step>C</step>
          <alter>1</alter>
          <octave>5</octave>
        </pitch>
        <duration>12</duration>
        <voice>1</voice>
        <type>eighth</type>
        <accidental>sharp</accidental>
        <stem default-y="20">up</stem>
        <beam number="1">begin</beam>
      </note>
      <note default-x="124">
        <pitch>
          <step>B</step>
          <octave>4</octave>
        </pitch>
        <duration>12</duration>
        <voice>1</voice>
        <type>eighth</type>
        <stem default-y="18">up</stem>
        <beam number="1">continue</beam>
      </note>
      <note default-x="142">
        <pitch>
          <step>A</step>
          <octave>4</octave>
        </pitch>
        <duration>12</duration>
        <voice>1</voice>
        <type>eighth</type>
        <stem default-y="17">up</stem>
        <beam number="1">continue</beam>
      </note>
      <note default-x="159">
        <pitch>
          <step>G</step>
          <octave>4</octave>
        </pitch>
        <duration>12</duration>
        <voice>1</voice>
        <type>eighth</type>
        <stem default-y="15">up</stem>
        <beam number="1">end</beam>
      </note>
      <note default-x="190">
        <pitch>
          <step>F</step>
          <alter>1</alter>
          <octave>4</octave>
        </pitch>
        <duration>12</duration>
        <voice>1</voice>
        <type>eighth</type>
        <accidental>sharp</accidental>
        <stem default-y="-5">up</stem>
        <beam number="1">begin</beam>
      </note>
      <note default-x="208">
        <pitch>
          <step>E</step>
          <octave>4</octave>
        </pitch>
        <duration>12</duration>
        <voice>1</voice>
        <type>eighth</type>
        <stem default-y="-6">up</stem>
        <beam number="1">continue</beam>
      </note>
      <note default-x="229">
        <pitch>
          <step>D</step>
          <octave>4</octave>
        </pitch>
        <duration>12</duration>
        <voice>1</voice>
        <type>eighth</type>
        <stem default-y="-7">up</stem>
        <beam number="1">continue</beam>
      </note>
      <note default-x="250">
        <pitch>
          <step>C</step>
          <octave>4</octave>
        </pitch>
        <duration>12</duration>
        <voice>1</voice>
        <type>eighth</type>
        <stem default-y="-7">up</stem>
        <beam number="1">end</beam>
      </note>
    </measure>
    <!--=======================================================-->
    <measure number="8" width="236">
      <note default-x="17">
        <pitch>
          <step>F</step>
          <octave>4</octave>
        </pitch>
        <duration>24</duration>
        <voice>1</voice>
        <type>quarter</type>
        <stem default-y="10.5">up</stem>
        <lyric default-y="-80" number="1">
          <syllabic>begin</syllabic>
          <text>Ly</text>
        </lyric>
      </note>
      <note default-x="17">
        <chord/>
        <pitch>
          <step>A</step>
          <octave>4</octave>
        </pitch>
        <duration>24</duration>
        <voice>1</voice>
        <type>quarter</type>
        <stem>up</stem>
      </note>
      <note default-x="46">
        <pitch>
          <step>E</step>
          <octave>4</octave>
        </pitch>
        <duration>24</duration>
        <voice>1</voice>
        <type>quarter</type>
        <stem default-y="10.5">up</stem>
        <lyric default-y="-80" number="1">
          <syllabic>end</syllabic>
          <text>rics</text>
        </lyric>
      </note>
      <note default-x="46">
        <chord/>
        <pitch>
          <step>G</step>
          <octave>4</octave>
        </pitch>
        <duration>24</duration>
        <voice>1</voice>
        <type>quarter</type>
        <stem>up</stem>
      </note>
      <note default-x="59">
        <chord/>
        <pitch>
          <step>A</step>
          <octave>4</octave>
        </pitch>
        <duration>24</duration>
        <voice>1</voice>
        <type>quarter</type>
        <stem>up</stem>
      </note>
      <note default-x="112">
        <pitch>
          <step>D</step>
          <alter>1</alter>
          <octave>4</octave>
        </pitch>
        <duration>12</duration>
        <voice>1</voice>
        <type>eighth</type>
        <accidental>sharp</accidental>
        <stem default-y="15">up</stem>
        <beam number="1">begin</beam>
        <lyric default-y="-80" number="1">
          <syllabic>single</syllabic>
          <text>on</text>
        </lyric>
      </note>
      <note default-x="112">
        <chord/>
        <pitch>
          <step>F</step>
          <alter>1</alter>
          <octave>4</octave>
        </pitch>
        <duration>12</duration>
        <voice>1</voice>
        <type>eighth</type>
        <accidental>sharp</accidental>
        <stem>up</stem>
      </note>
      <note default-x="112">
        <chord/>
        <pitch>
          <step>B</step>
          <alter>1</alter>
          <octave>4</octave>
        </pitch>
        <duration>12</duration>
        <voice>1</voice>
        <type>eighth</type>
        <accidental>sharp</accidental>
        <stem>up</stem>
      </note>
      <note default-x="149">
        <pitch>
          <step>E</step>
          <octave>4</octave>
        </pitch>
        <duration>12</duration>
        <voice>1</voice>
        <type>eighth</type>
        <stem default-y="20">up</stem>
        <beam number="1">end</beam>
        <lyric default-y="-80" number="1">
          <syllabic>single</syllabic>
          <text>the</text>
        </lyric>
      </note>
      <note default-x="149">
        <chord/>
        <pitch>
          <step>G</step>
          <octave>4</octave>
        </pitch>
        <duration>12</duration>
        <voice>1</voice>
        <type>eighth</type>
        <stem>up</stem>
      </note>
      <note default-x="149">
        <chord/>
        <pitch>
          <step>C</step>
          <alter>1</alter>
          <octave>5</octave>
        </pitch>
        <duration>12</duration>
        <voice>1</voice>
        <type>eighth</type>
        <accidental>sharp</accidental>
        <stem>up</stem>
      </note>
      <note default-x="194">
        <pitch>
          <step>C</step>
          <octave>4</octave>
        </pitch>
        <duration>24</duration>
        <voice>1</voice>
        <type>quarter</type>
        <accidental>natural</accidental>
        <stem default-y="-14.5">up</stem>
        <lyric default-y="-80" number="1">
          <syllabic>single</syllabic>
          <text>chords</text>
        </lyric>
      </note>
    </measure>
    <!--=======================================================-->
    <measure number="9" width="111">
      <note default-x="27">
        <pitch>
          <step>C</step>
          <octave>4</octave>
        </pitch>
        <duration>96</duration>
        <voice>1</voice>
        <type>whole</type>
        <lyric default-y="-80" number="1">
          <syllabic>single</syllabic>
          <text>here.</text>
        </lyric>
      </note>
    </measure>
    <!--=======================================================-->
    <measure number="10" width="227">
      <attributes>
        <key>
          <fifths>4</fifths>
          <mode>major</mode>
        </key>
      </attributes>
      <note default-x="97">
        <pitch>
          <step>E</step>
          <octave>4</octave>
        </pitch>
        <duration>24</duration>
        <voice>1</voice>
        <type>quarter</type>
        <stem default-y="-4">up</stem>
      </note>
      <note default-x="129">
        <pitch>
          <step>F</step>
          <alter>1</alter>
          <octave>4</octave>
        </pitch>
        <duration>24</duration>
        <voice>1</voice>
        <type>quarter</type>
        <stem default-y="1">up</stem>
      </note>
      <note default-x="162">
        <pitch>
          <step>G</step>
          <alter>1</alter>
          <octave>4</octave>
        </pitch>
        <duration>24</duration>
        <voice>1</voice>
        <type>quarter</type>
        <stem default-y="5.5">up</stem>
      </note>
      <note default-x="194">
        <pitch>
          <step>A</step>
          <octave>4</octave>
        </pitch>
        <duration>24</duration>
        <voice>1</voice>
        <type>quarter</type>
        <stem default-y="10.5">up</stem>
      </note>
    </measure>
    <!--=======================================================-->
    <measure number="11" width="144">
      <direction placement="below">
        <direction-type>
          <wedge default-y="-69" spread="0" type="crescendo"/>
        </direction-type>
        <offset>2</offset>
      </direction>
      <note default-x="14">
        <pitch>
          <step>B</step>
          <octave>4</octave>
        </pitch>
        <duration>24</duration>
        <voice>1</voice>
        <type>quarter</type>
        <stem default-y="-55">down</stem>
      </note>
      <note default-x="46">
        <pitch>
          <step>C</step>
          <alter>1</alter>
          <octave>5</octave>
        </pitch>
        <duration>24</duration>
        <voice>1</voice>
        <type>quarter</type>
        <stem default-y="-50">down</stem>
      </note>
      <note default-x="79">
        <pitch>
          <step>D</step>
          <alter>1</alter>
          <octave>5</octave>
        </pitch>
        <duration>24</duration>
        <voice>1</voice>
        <type>quarter</type>
        <stem default-y="-45.5">down</stem>
      </note>
      <note default-x="111">
        <pitch>
          <step>E</step>
          <octave>5</octave>
        </pitch>
        <duration>24</duration>
        <voice>1</voice>
        <type>quarter</type>
        <stem default-y="-40">down</stem>
      </note>
      <direction>
        <direction-type>
          <wedge spread="15" type="stop"/>
        </direction-type>
        <offset>-9</offset>
      </direction>
    </measure>
    <!--=======================================================-->
    <measure number="12" width="275">
      <print new-system="yes">
        <system-layout>
          <system-distance>114</system-distance>
        </system-layout>
      </print>
      <direction placement="below">
        <direction-type>
          <dynamics default-y="-73">
            <f/>
          </dynamics>
        </direction-type>
        <offset>48</offset>
        <sound dynamics="98"/>
      </direction>
      <note default-x="112">
        <pitch>
          <step>E</step>
          <octave>5</octave>
        </pitch>
        <duration>24</duration>
        <voice>1</voice>
        <type>quarter</type>
        <stem default-y="-40">down</stem>
        <notations>
          <articulations>
            <accent default-x="-1" default-y="5" placement="above"/>
          </articulations>
        </notations>
      </note>
      <note default-x="147">
        <pitch>
          <step>B</step>
          <octave>4</octave>
        </pitch>
        <duration>12</duration>
        <voice>1</voice>
        <type>eighth</type>
        <stem default-y="-55">down</stem>
        <beam number="1">begin</beam>
        <notations>
          <articulations>
            <staccato default-x="3" default-y="3" placement="above"/>
          </articulations>
        </notations>
      </note>
      <note default-x="147">
        <chord/>
        <pitch>
          <step>D</step>
          <alter>1</alter>
          <octave>5</octave>
        </pitch>
        <duration>12</duration>
        <voice>1</voice>
        <type>eighth</type>
        <stem>down</stem>
      </note>
      <note default-x="168">
        <pitch>
          <step>A</step>
          <octave>4</octave>
        </pitch>
        <duration>12</duration>
        <voice>1</voice>
        <type>eighth</type>
        <stem default-y="-60">down</stem>
        <beam number="1">end</beam>
        <notations>
          <articulations>
            <staccato default-x="3" default-y="-17" placement="above"/>
          </articulations>
        </notations>
      </note>
      <note default-x="189">
        <pitch>
          <step>G</step>
          <alter>1</alter>
          <octave>4</octave>
        </pitch>
        <duration>12</duration>
        <voice>1</voice>
        <type>eighth</type>
        <stem default-y="5">up</stem>
        <beam number="1">begin</beam>
      </note>
      <note default-x="210">
        <pitch>
          <step>F</step>
          <alter>1</alter>
          <octave>4</octave>
        </pitch>
        <duration>12</duration>
        <voice>1</voice>
        <type>eighth</type>
        <stem default-y="4.5">up</stem>
        <beam number="1">continue</beam>
      </note>
      <note default-x="231">
        <pitch>
          <step>E</step>
          <octave>4</octave>
        </pitch>
        <duration>12</duration>
        <voice>1</voice>
        <type>eighth</type>
        <stem default-y="3.5">up</stem>
        <beam number="1">continue</beam>
      </note>
      <note default-x="252">
        <pitch>
          <step>D</step>
          <alter>1</alter>
          <octave>4</octave>
        </pitch>
        <duration>12</duration>
        <voice>1</voice>
        <type>eighth</type>
        <stem default-y="2.5">up</stem>
        <beam number="1">end</beam>
      </note>
    </measure>
    <!--=======================================================-->
    <measure number="13" width="138">
      <direction placement="below">
        <direction-type>
          <dynamics default-y="-73">
            <ppp/>
          </dynamics>
        </direction-type>
        <sound dynamics="26"/>
      </direction>
      <note default-x="14">
        <pitch>
          <step>E</step>
          <octave>4</octave>
        </pitch>
        <duration>48</duration>
        <voice>1</voice>
        <type>half</type>
        <stem default-y="-4">up</stem>
        <notations>
          <slur number="1" placement="below" type="start"/>
        </notations>
      </note>
      <note default-x="69">
        <pitch>
          <step>F</step>
          <octave>4</octave>
        </pitch>
        <duration>24</duration>
        <voice>1</voice>
        <type>quarter</type>
        <accidental>natural</accidental>
        <stem default-y="0.5">up</stem>
      </note>
      <note default-x="103">
        <pitch>
          <step>G</step>
          <octave>4</octave>
        </pitch>
        <duration>24</duration>
        <voice>1</voice>
        <type>quarter</type>
        <accidental>natural</accidental>
        <stem default-y="5.5">up</stem>
        <notations>
          <slur number="1" type="stop"/>
        </notations>
      </note>
    </measure>
    <!--=======================================================-->
    <measure number="14" width="164">
      <note default-x="26">
        <pitch>
          <step>A</step>
          <alter>1</alter>
          <octave>4</octave>
        </pitch>
        <duration>24</duration>
        <voice>1</voice>
        <type>quarter</type>
        <accidental>sharp</accidental>
        <stem default-y="10.5">up</stem>
      </note>
      <note default-x="61">
        <pitch>
          <step>C</step>
          <alter>2</alter>
          <octave>5</octave>
        </pitch>
        <duration>24</duration>
        <voice>1</voice>
        <type>quarter</type>
        <accidental>double-sharp</accidental>
        <stem default-y="-50.5">down</stem>
      </note>
      <note default-x="95">
        <pitch>
          <step>D</step>
          <alter>1</alter>
          <octave>5</octave>
        </pitch>
        <duration>24</duration>
        <voice>1</voice>
        <type>quarter</type>
        <stem default-y="-45.5">down</stem>
      </note>
      <note default-x="129">
        <pitch>
          <step>E</step>
          <octave>5</octave>
        </pitch>
        <duration>24</duration>
        <voice>1</voice>
        <type>quarter</type>
        <stem default-y="-40">down</stem>
      </note>
    </measure>
    <!--=======================================================-->
    <measure number="15" width="228">
      <note default-x="14">
        <pitch>
          <step>B</step>
          <octave>4</octave>
        </pitch>
        <duration>12</duration>
        <voice>1</voice>
        <type>eighth</type>
        <stem default-y="-55">down</stem>
        <beam number="1">begin</beam>
      </note>
      <note default-x="34">
        <pitch>
          <step>D</step>
          <alter>1</alter>
          <octave>5</octave>
        </pitch>
        <duration>12</duration>
        <tie type="start"/>
        <voice>1</voice>
        <type>eighth</type>
        <stem default-y="-55">down</stem>
        <beam number="1">continue</beam>
        <notations>
          <tied type="start"/>
        </notations>
      </note>
      <note default-x="67">
        <pitch>
          <step>D</step>
          <alter>1</alter>
          <octave>5</octave>
        </pitch>
        <duration>12</duration>
        <tie type="stop"/>
        <voice>1</voice>
        <type>eighth</type>
        <stem default-y="-55">down</stem>
        <beam number="1">continue</beam>
        <notations>
          <tied type="stop"/>
        </notations>
      </note>
      <note default-x="88">
        <pitch>
          <step>B</step>
          <octave>4</octave>
        </pitch>
        <duration>12</duration>
        <tie type="start"/>
        <voice>1</voice>
        <type>eighth</type>
        <stem default-y="-55">down</stem>
        <beam number="1">end</beam>
        <notations>
          <tied type="start"/>
        </notations>
      </note>
      <note default-x="120">
        <pitch>
          <step>B</step>
          <octave>4</octave>
        </pitch>
        <duration>12</duration>
        <tie type="stop"/>
        <voice>1</voice>
        <type>eighth</type>
        <stem default-y="15">up</stem>
        <beam number="1">begin</beam>
        <notations>
          <tied type="stop"/>
        </notations>
      </note>
      <note default-x="142">
        <pitch>
          <step>A</step>
          <octave>4</octave>
        </pitch>
        <duration>12</duration>
        <tie type="start"/>
        <voice>1</voice>
        <type>eighth</type>
        <stem default-y="17">up</stem>
        <beam number="1">continue</beam>
        <notations>
          <tied type="start"/>
        </notations>
      </note>
      <note default-x="174">
        <pitch>
          <step>A</step>
          <octave>4</octave>
        </pitch>
        <duration>12</duration>
        <tie type="stop"/>
        <voice>1</voice>
        <type>eighth</type>
        <stem default-y="19">up</stem>
        <beam number="1">continue</beam>
        <notations>
          <tied type="stop"/>
        </notations>
      </note>
      <note default-x="194">
        <pitch>
          <step>C</step>
          <alter>1</alter>
          <octave>5</octave>
        </pitch>
        <duration>12</duration>
        <tie type="start"/>
        <voice>1</voice>
        <type>eighth</type>
        <stem default-y="20">up</stem>
        <beam number="1">end</beam>
        <notations>
          <tied type="start"/>
        </notations>
      </note>
    </measure>
    <!--=======================================================-->
    <measure number="16" width="183">
      <note default-x="17">
        <pitch>
          <step>C</step>
          <alter>1</alter>
          <octave>5</octave>
        </pitch>
        <duration>24</duration>
        <tie type="stop"/>
        <voice>1</voice>
        <type>quarter</type>
        <stem default-y="-50.5">down</stem>
        <notations>
          <tied type="stop"/>
        </notations>
      </note>
      <note default-x="35">
        <grace/>
        <pitch>
          <step>F</step>
          <alter>1</alter>
          <octave>4</octave>
        </pitch>
        <voice>1</voice>
        <type>eighth</type>
        <stem default-y="-14">up</stem>
        <beam number="1">begin</beam>
      </note>
      <note default-x="48">
        <grace/>
        <pitch>
          <step>E</step>
          <octave>4</octave>
        </pitch>
        <voice>1</voice>
        <type>eighth</type>
        <stem default-y="-17">up</stem>
        <beam number="1">end</beam>
      </note>
      <note default-x="61">
        <pitch>
          <step>D</step>
          <alter>1</alter>
          <octave>4</octave>
        </pitch>
        <duration>48</duration>
        <voice>1</voice>
        <type>half</type>
        <stem default-y="-10">up</stem>
      </note>
      <note default-x="116">
        <pitch>
          <step>E</step>
          <octave>4</octave>
        </pitch>
        <duration>24</duration>
        <voice>1</voice>
        <type>quarter</type>
        <stem default-y="-4">up</stem>
      </note>
    </measure>
    <!--=======================================================-->
    <measure number="17" width="392">
      <print new-system="yes">
        <system-layout>
          <system-distance>114</system-distance>
        </system-layout>
      </print>
      <attributes>
        <time>
          <beats>3</beats>
          <beat-type>4</beat-type>
        </time>
      </attributes>
      <note default-x="166">
        <pitch>
          <step>F</step>
          <alter>1</alter>
          <octave>4</octave>
        </pitch>
        <duration>6</duration>
        <voice>1</voice>
        <type>16th</type>
        <stem default-y="0">up</stem>
        <beam number="1">begin</beam>
        <beam number="2">begin</beam>
      </note>
      <note default-x="188">
        <pitch>
          <step>E</step>
          <octave>4</octave>
        </pitch>
        <duration>6</duration>
        <voice>1</voice>
        <type>16th</type>
        <stem default-y="2">up</stem>
        <beam number="1">continue</beam>
        <beam number="2">continue</beam>
      </note>
      <note default-x="209">
        <pitch>
          <step>F</step>
          <alter>1</alter>
          <octave>4</octave>
        </pitch>
        <duration>6</duration>
        <voice>1</voice>
        <type>16th</type>
        <stem default-y="4">up</stem>
        <beam number="1">continue</beam>
        <beam number="2">continue</beam>
      </note>
      <note default-x="230">
        <pitch>
          <step>G</step>
          <alter>1</alter>
          <octave>4</octave>
        </pitch>
        <duration>6</duration>
        <voice>1</voice>
        <type>16th</type>
        <stem default-y="5">up</stem>
        <beam number="1">end</beam>
        <beam number="2">end</beam>
      </note>
      <note default-x="252">
        <pitch>
          <step>A</step>
          <octave>4</octave>
        </pitch>
        <duration>12</duration>
        <voice>1</voice>
        <type>eighth</type>
        <stem default-y="10">up</stem>
        <beam number="1">begin</beam>
      </note>
      <note default-x="287">
        <pitch>
          <step>B</step>
          <octave>4</octave>
        </pitch>
        <duration>12</duration>
        <voice>1</voice>
        <type>eighth</type>
        <stem default-y="15">up</stem>
        <beam number="1">end</beam>
      </note>
      <note default-x="322">
        <pitch>
          <step>C</step>
          <alter>1</alter>
          <octave>5</octave>
        </pitch>
        <duration>12</duration>
        <voice>1</voice>
        <type>eighth</type>
        <stem default-y="-50">down</stem>
        <beam number="1">begin</beam>
      </note>
      <note default-x="356">
        <pitch>
          <step>D</step>
          <alter>1</alter>
          <octave>5</octave>
        </pitch>
        <duration>12</duration>
        <voice>1</voice>
        <type>eighth</type>
        <stem default-y="-45">down</stem>
        <beam number="1">end</beam>
      </note>
    </measure>
    <!--=======================================================-->
    <measure number="18" width="217">
      <note default-x="21">
        <pitch>
          <step>E</step>
          <octave>5</octave>
        </pitch>
        <duration>12</duration>
        <voice>1</voice>
        <type>eighth</type>
        <stem default-y="-35">down</stem>
        <beam number="1">begin</beam>
      </note>
      <note default-x="53">
        <pitch>
          <step>F</step>
          <alter>1</alter>
          <octave>5</octave>
        </pitch>
        <duration>12</duration>
        <voice>1</voice>
        <type>eighth</type>
        <stem default-y="-32.5">down</stem>
        <beam number="1">end</beam>
      </note>
      <note default-x="85">
        <pitch>
          <step>G</step>
          <alter>1</alter>
          <octave>5</octave>
        </pitch>
        <duration>12</duration>
        <voice>1</voice>
        <type>eighth</type>
        <stem default-y="-30">down</stem>
        <beam number="1">begin</beam>
      </note>
      <note default-x="118">
        <pitch>
          <step>F</step>
          <alter>1</alter>
          <octave>5</octave>
        </pitch>
        <duration>12</duration>
        <voice>1</voice>
        <type>eighth</type>
        <stem default-y="-32.5">down</stem>
        <beam number="1">end</beam>
      </note>
      <note default-x="151">
        <pitch>
          <step>G</step>
          <alter>1</alter>
          <octave>5</octave>
        </pitch>
        <duration>12</duration>
        <voice>1</voice>
        <type>eighth</type>
        <stem default-y="-30">down</stem>
        <beam number="1">begin</beam>
      </note>
      <note default-x="183">
        <pitch>
          <step>F</step>
          <alter>1</alter>
          <octave>5</octave>
        </pitch>
        <duration>12</duration>
        <voice>1</voice>
        <type>eighth</type>
        <stem default-y="-32.5">down</stem>
        <beam number="1">end</beam>
      </note>
    </measure>
    <!--=======================================================-->
    <measure number="19" width="230">
      <attributes>
        <time>
          <beats>6</beats>
          <beat-type>8</beat-type>
        </time>
      </attributes>
      <note default-x="43">
        <pitch>
          <step>E</step>
          <octave>5</octave>
        </pitch>
        <duration>12</duration>
        <voice>1</voice>
        <type>eighth</type>
        <stem default-y="-50">down</stem>
        <beam number="1">begin</beam>
      </note>
      <note default-x="74">
        <pitch>
          <step>D</step>
          <alter>1</alter>
          <octave>5</octave>
        </pitch>
        <duration>12</duration>
        <voice>1</voice>
        <type>eighth</type>
        <stem default-y="-52">down</stem>
        <beam number="1">continue</beam>
      </note>
      <note default-x="105">
        <pitch>
          <step>B</step>
          <octave>4</octave>
        </pitch>
        <duration>12</duration>
        <voice>1</voice>
        <type>eighth</type>
        <stem default-y="-55">down</stem>
        <beam number="1">end</beam>
      </note>
      <note default-x="136">
        <pitch>
          <step>A</step>
          <octave>4</octave>
        </pitch>
        <duration>12</duration>
        <voice>1</voice>
        <type>eighth</type>
        <stem default-y="10">up</stem>
        <beam number="1">begin</beam>
      </note>
      <note default-x="167">
        <pitch>
          <step>G</step>
          <alter>1</alter>
          <octave>4</octave>
        </pitch>
        <duration>12</duration>
        <voice>1</voice>
        <type>eighth</type>
        <stem default-y="7.5">up</stem>
        <beam number="1">continue</beam>
      </note>
      <note default-x="199">
        <pitch>
          <step>F</step>
          <alter>1</alter>
          <octave>4</octave>
        </pitch>
        <duration>12</duration>
        <voice>1</voice>
        <type>eighth</type>
        <stem default-y="5">up</stem>
        <beam number="1">end</beam>
      </note>
    </measure>
    <!--=======================================================-->
    <measure number="20" width="150">
      <note default-x="13">
        <pitch>
          <step>E</step>
          <octave>4</octave>
        </pitch>
        <duration>36</duration>
        <voice>1</voice>
        <type>quarter</type>
        <dot/>
        <stem default-y="-5">up</stem>
      </note>
      <note default-x="81">
        <pitch>
          <step>E</step>
          <octave>4</octave>
        </pitch>
        <duration>36</duration>
        <voice>1</voice>
        <type>quarter</type>
        <dot/>
        <stem default-y="-5">up</stem>
      </note>
    </measure>
    <!--=======================================================-->
    <measure number="21" width="989">
      <print new-page="yes"/>
      <note default-x="137">
        <pitch>
          <step>B</step>
          <octave>3</octave>
        </pitch>
        <duration>24</duration>
        <voice>1</voice>
        <type>quarter</type>
        <stem default-y="-19.5">up</stem>
      </note>
      <note default-x="397">
        <rest/>
        <duration>12</duration>
        <voice>1</voice>
        <type>eighth</type>
      </note>
      <note default-x="558">
        <rest/>
        <duration>24</duration>
        <voice>1</voice>
        <type>quarter</type>
      </note>
      <note default-x="818">
        <rest/>
        <duration>12</duration>
        <voice>1</voice>
        <type>eighth</type>
      </note>
      <barline location="right">
        <bar-style>light-heavy</bar-style>
      </barline>
    </measure>
  </part>
  <!--=========================================================-->
  <part id="P2">
    <measure number="1" width="289">
      <attributes>
        <divisions>8</divisions>
        <key>
          <fifths>2</fifths>
          <mode>major</mode>
        </key>
        <time>
          <beats>4</beats>
          <beat-type>4</beat-type>
        </time>
        <clef>
          <sign>G</sign>
          <line>2</line>
        </clef>
        <transpose>
          <diatonic>-1</diatonic>
          <chromatic>-2</chromatic>
        </transpose>
      </attributes>
      <sound tempo="120"/>
      <note default-x="121">
        <pitch>
          <step>D</step>
          <octave>5</octave>
        </pitch>
        <duration>8</duration>
        <voice>1</voice>
        <type>quarter</type>
        <stem default-y="-45.5">down</stem>
      </note>
      <note default-x="162">
        <pitch>
          <step>A</step>
          <octave>4</octave>
        </pitch>
        <duration>8</duration>
        <voice>1</voice>
        <type>quarter</type>
        <stem default-y="10.5">up</stem>
      </note>
      <note default-x="205">
        <pitch>
          <step>F</step>
          <alter>1</alter>
          <octave>4</octave>
        </pitch>
        <duration>8</duration>
        <voice>1</voice>
        <type>quarter</type>
        <stem default-y="1">up</stem>
      </note>
      <note default-x="246">
        <pitch>
          <step>D</step>
          <octave>4</octave>
        </pitch>
        <duration>8</duration>
        <voice>1</voice>
        <type>quarter</type>
        <stem default-y="-10">up</stem>
      </note>
    </measure>
    <!--=======================================================-->
    <measure number="2" width="278">
      <direction placement="below">
        <direction-type>
          <dynamics default-y="-66">
            <f/>
          </dynamics>
        </direction-type>
        <sound dynamics="98"/>
      </direction>
      <note>
        <rest/>
        <duration>32</duration>
        <voice>1</voice>
      </note>
    </measure>
    <!--=======================================================-->
    <measure number="3" width="352">
      <note>
        <rest/>
        <duration>32</duration>
        <voice>1</voice>
      </note>
    </measure>
    <!--=======================================================-->
    <measure number="4" width="458">
      <print new-system="yes"/>
      <note>
        <rest/>
        <duration>32</duration>
        <voice>1</voice>
      </note>
    </measure>
    <!--=======================================================-->
    <measure number="5" width="274">
      <note>
        <rest/>
        <duration>32</duration>
        <voice>1</voice>
      </note>
      <barline location="right">
        <bar-style>light-light</bar-style>
      </barline>
    </measure>
    <!--=======================================================-->
    <measure number="6" width="257">
      <note default-x="16">
        <pitch>
          <step>D</step>
          <octave>4</octave>
        </pitch>
        <duration>7</duration>
        <voice>1</voice>
        <type>eighth</type>
        <dot/>
        <dot/>
        <stem default-y="-10">up</stem>
        <beam number="1">begin</beam>
      </note>
      <note default-x="56">
        <pitch>
          <step>E</step>
          <octave>4</octave>
        </pitch>
        <duration>1</duration>
        <voice>1</voice>
        <type>32nd</type>
        <stem default-y="-7">up</stem>
        <beam number="1">end</beam>
        <beam number="2">backward hook</beam>
        <beam number="3">backward hook</beam>
      </note>
      <note default-x="74">
        <pitch>
          <step>F</step>
          <alter>1</alter>
          <octave>4</octave>
        </pitch>
        <duration>4</duration>
        <voice>1</voice>
        <type>eighth</type>
        <stem default-y="0">up</stem>
        <beam number="1">begin</beam>
      </note>
      <note default-x="111">
        <pitch>
          <step>G</step>
          <octave>4</octave>
        </pitch>
        <duration>4</duration>
        <voice>1</voice>
        <type>eighth</type>
        <stem default-y="5">up</stem>
        <beam number="1">end</beam>
      </note>
      <note default-x="148">
        <pitch>
          <step>A</step>
          <octave>4</octave>
        </pitch>
        <duration>4</duration>
        <voice>1</voice>
        <type>eighth</type>
        <stem default-y="-60">down</stem>
        <beam number="1">begin</beam>
      </note>
      <note default-x="179">
        <pitch>
          <step>B</step>
          <alter>-1</alter>
          <octave>4</octave>
        </pitch>
        <duration>4</duration>
        <voice>1</voice>
        <type>eighth</type>
        <accidental>flat</accidental>
        <stem default-y="-58">down</stem>
        <beam number="1">continue</beam>
      </note>
      <note default-x="209">
        <pitch>
          <step>C</step>
          <octave>5</octave>
        </pitch>
        <duration>4</duration>
        <voice>1</voice>
        <type>eighth</type>
        <accidental>natural</accidental>
        <stem default-y="-56">down</stem>
        <beam number="1">continue</beam>
      </note>
      <note default-x="233">
        <pitch>
          <step>D</step>
          <octave>5</octave>
        </pitch>
        <duration>4</duration>
        <voice>1</voice>
        <type>eighth</type>
        <stem default-y="-55">down</stem>
        <beam number="1">end</beam>
      </note>
    </measure>
    <!--=======================================================-->
    <measure number="7" width="271">
      <print new-page="yes"/>
      <note>
        <rest/>
        <duration>32</duration>
        <voice>1</voice>
      </note>
    </measure>
    <!--=======================================================-->
    <measure number="8" width="236">
      <note>
        <rest/>
        <duration>32</duration>
        <voice>1</voice>
      </note>
    </measure>
    <!--=======================================================-->
    <measure number="9" width="111">
      <note>
        <rest/>
        <duration>32</duration>
        <voice>1</voice>
      </note>
    </measure>
    <!--=======================================================-->
    <measure number="10" width="227">
      <attributes>
        <key>
          <fifths>6</fifths>
          <mode>major</mode>
        </key>
        <transpose>
          <diatonic>-1</diatonic>
          <chromatic>-2</chromatic>
        </transpose>
      </attributes>
      <note>
        <rest/>
        <duration>32</duration>
        <voice>1</voice>
      </note>
    </measure>
    <!--=======================================================-->
    <measure number="11" width="144">
      <note>
        <rest/>
        <duration>32</duration>
        <voice>1</voice>
      </note>
    </measure>
    <!--=======================================================-->
    <measure number="12" width="275">
      <print new-system="yes"/>
      <attributes>
        <staff-details print-object="no"/>
      </attributes>
      <note>
        <rest/>
        <duration>32</duration>
        <voice>1</voice>
      </note>
    </measure>
    <!--=======================================================-->
    <measure number="13" width="138">
      <note>
        <rest/>
        <duration>32</duration>
        <voice>1</voice>
      </note>
    </measure>
    <!--=======================================================-->
    <measure number="14" width="164">
      <note>
        <rest/>
        <duration>32</duration>
        <voice>1</voice>
      </note>
    </measure>
    <!--=======================================================-->
    <measure number="15" width="228">
      <note>
        <rest/>
        <duration>32</duration>
        <voice>1</voice>
      </note>
    </measure>
    <!--=======================================================-->
    <measure number="16" width="183">
      <note>
        <rest/>
        <duration>32</duration>
        <voice>1</voice>
      </note>
    </measure>
    <!--=======================================================-->
    <measure number="17" width="392">
      <print new-system="yes"/>
      <attributes>
        <time>
          <beats>3</beats>
          <beat-type>4</beat-type>
        </time>
        <staff-details print-object="yes"/>
      </attributes>
      <note>
        <rest/>
        <duration>24</duration>
        <voice>1</voice>
      </note>
    </measure>
    <!--=======================================================-->
    <measure number="18" width="217">
      <note default-x="21">
        <pitch>
          <step>G</step>
          <alter>1</alter>
          <octave>4</octave>
        </pitch>
        <duration>8</duration>
        <voice>1</voice>
        <type>quarter</type>
        <stem default-y="5.5">up</stem>
        <lyric default-y="-80" number="1">
          <syllabic>single</syllabic>
          <text>My</text>
        </lyric>
      </note>
      <note default-x="85">
        <pitch>
          <step>B</step>
          <octave>4</octave>
        </pitch>
        <duration>8</duration>
        <voice>1</voice>
        <type>quarter</type>
        <stem default-y="-55">down</stem>
        <lyric default-y="-80" number="1">
          <syllabic>single</syllabic>
          <text>Name</text>
        </lyric>
      </note>
      <note default-x="151">
        <pitch>
          <step>D</step>
          <alter>1</alter>
          <octave>5</octave>
        </pitch>
        <duration>8</duration>
        <voice>1</voice>
        <type>quarter</type>
        <stem default-y="-45.5">down</stem>
        <lyric default-y="-80" number="1">
          <syllabic>single</syllabic>
          <text>is</text>
        </lyric>
      </note>
    </measure>
    <!--=======================================================-->
    <measure number="19" width="230">
      <attributes>
        <time>
          <beats>6</beats>
          <beat-type>8</beat-type>
        </time>
      </attributes>
      <note>
        <rest/>
        <duration>24</duration>
        <voice>1</voice>
      </note>
    </measure>
    <!--=======================================================-->
    <measure number="20" width="150">
      <note>
        <rest/>
        <duration>24</duration>
        <voice>1</voice>
      </note>
    </measure>
    <!--=======================================================-->
    <measure number="21" width="989">
      <print new-page="yes"/>
      <note default-x="137">
        <pitch>
          <step>C</step>
          <alter>1</alter>
          <octave>4</octave>
        </pitch>
        <duration>8</duration>
        <voice>1</voice>
        <type>quarter</type>
        <stem default-y="-15">up</stem>
      </note>
      <note default-x="397">
        <rest/>
        <duration>4</duration>
        <voice>1</voice>
        <type>eighth</type>
      </note>
      <note default-x="558">
        <rest/>
        <duration>8</duration>
        <voice>1</voice>
        <type>quarter</type>
      </note>
      <note default-x="818">
        <rest/>
        <duration>4</duration>
        <voice>1</voice>
        <type>eighth</type>
      </note>
      <barline location="right">
        <bar-style>light-heavy</bar-style>
      </barline>
    </measure>
  </part>
  <!--=========================================================-->
  <part id="P3">
    <measure number="1" width="289">
      <attributes>
        <divisions>48</divisions>
        <key>
          <fifths>0</fifths>
          <mode>major</mode>
        </key>
        <time>
          <beats>4</beats>
          <beat-type>4</beat-type>
        </time>
        <staves>2</staves>
        <clef number="1">
          <sign>G</sign>
          <line>2</line>
        </clef>
        <clef number="2">
          <sign>F</sign>
          <line>4</line>
        </clef>
      </attributes>
      <sound tempo="120"/>
      <note default-x="121">
        <pitch>
          <step>E</step>
          <octave>4</octave>
        </pitch>
        <duration>48</duration>
        <voice>1</voice>
        <type>quarter</type>
        <stem default-y="-4">up</stem>
        <staff>1</staff>
      </note>
      <note default-x="163">
        <rest/>
        <duration>48</duration>
        <voice>1</voice>
        <type>quarter</type>
        <staff>1</staff>
      </note>
      <note default-x="203">
        <rest/>
        <duration>96</duration>
        <voice>1</voice>
        <type>half</type>
        <staff>1</staff>
      </note>
      <backup>
        <duration>192</duration>
      </backup>
      <note default-x="121">
        <pitch>
          <step>C</step>
          <octave>3</octave>
        </pitch>
        <duration>48</duration>
        <voice>3</voice>
        <type>quarter</type>
        <stem default-y="10">up</stem>
        <staff>2</staff>
      </note>
      <note default-x="162">
        <pitch>
          <step>D</step>
          <octave>3</octave>
        </pitch>
        <duration>48</duration>
        <voice>3</voice>
        <type>quarter</type>
        <stem default-y="-55.5">down</stem>
        <staff>2</staff>
      </note>
      <note default-x="205">
        <pitch>
          <step>E</step>
          <octave>3</octave>
        </pitch>
        <duration>48</duration>
        <voice>3</voice>
        <type>quarter</type>
        <stem default-y="-50">down</stem>
        <staff>2</staff>
      </note>
      <note default-x="246">
        <pitch>
          <step>F</step>
          <octave>3</octave>
        </pitch>
        <duration>48</duration>
        <voice>3</voice>
        <type>quarter</type>
        <stem default-y="-45">down</stem>
        <staff>2</staff>
      </note>
    </measure>
    <!--=======================================================-->
    <measure number="2" width="278">
      <note default-x="130">
        <rest/>
        <duration>192</duration>
        <voice>1</voice>
        <type>whole</type>
        <staff>1</staff>
      </note>
      <backup>
        <duration>192</duration>
      </backup>
      <note default-x="15">
        <pitch>
          <step>G</step>
          <octave>3</octave>
        </pitch>
        <duration>48</duration>
        <voice>3</voice>
        <type>quarter</type>
        <stem default-y="-40">down</stem>
        <staff>2</staff>
      </note>
      <note default-x="63">
        <pitch>
          <step>A</step>
          <octave>3</octave>
        </pitch>
        <duration>48</duration>
        <voice>3</voice>
        <type>quarter</type>
        <stem default-y="-35">down</stem>
        <staff>2</staff>
      </note>
      <note default-x="111">
        <pitch>
          <step>B</step>
          <octave>3</octave>
        </pitch>
        <duration>8</duration>
        <voice>3</voice>
        <type>eighth</type>
        <time-modification>
          <actual-notes>6</actual-notes>
          <normal-notes>2</normal-notes>
        </time-modification>
        <stem default-y="-65">down</stem>
        <staff>2</staff>
        <beam number="1">begin</beam>
        <notations>
          <tuplet number="1" placement="below" type="start"/>
        </notations>
      </note>
      <note default-x="129">
        <pitch>
          <step>B</step>
          <octave>2</octave>
        </pitch>
        <duration>8</duration>
        <voice>3</voice>
        <type>eighth</type>
        <time-modification>
          <actual-notes>6</actual-notes>
          <normal-notes>2</normal-notes>
        </time-modification>
        <stem default-y="-65">down</stem>
        <staff>2</staff>
        <beam number="1">continue</beam>
      </note>
      <note default-x="147">
        <pitch>
          <step>C</step>
          <octave>3</octave>
        </pitch>
        <duration>8</duration>
        <voice>3</voice>
        <type>eighth</type>
        <time-modification>
          <actual-notes>6</actual-notes>
          <normal-notes>2</normal-notes>
        </time-modification>
        <stem default-y="-65">down</stem>
        <staff>2</staff>
        <beam number="1">continue</beam>
      </note>
      <note default-x="165">
        <pitch>
          <step>D</step>
          <octave>3</octave>
        </pitch>
        <duration>8</duration>
        <voice>3</voice>
        <type>eighth</type>
        <time-modification>
          <actual-notes>6</actual-notes>
          <normal-notes>2</normal-notes>
        </time-modification>
        <stem default-y="-65">down</stem>
        <staff>2</staff>
        <beam number="1">continue</beam>
      </note>
      <note default-x="182">
        <pitch>
          <step>E</step>
          <octave>3</octave>
        </pitch>
        <duration>8</duration>
        <voice>3</voice>
        <type>eighth</type>
        <time-modification>
          <actual-notes>6</actual-notes>
          <normal-notes>2</normal-notes>
        </time-modification>
        <stem default-y="-65">down</stem>
        <staff>2</staff>
        <beam number="1">continue</beam>
      </note>
      <note default-x="201">
        <pitch>
          <step>F</step>
          <octave>3</octave>
        </pitch>
        <duration>8</duration>
        <voice>3</voice>
        <type>eighth</type>
        <time-modification>
          <actual-notes>6</actual-notes>
          <normal-notes>2</normal-notes>
        </time-modification>
        <stem default-y="-65">down</stem>
        <staff>2</staff>
        <beam number="1">end</beam>
        <notations>
          <tuplet number="1" type="stop"/>
        </notations>
      </note>
      <note default-x="218">
        <pitch>
          <step>G</step>
          <octave>3</octave>
        </pitch>
        <duration>24</duration>
        <voice>3</voice>
        <type>eighth</type>
        <stem default-y="-40">down</stem>
        <staff>2</staff>
        <beam number="1">begin</beam>
      </note>
      <note default-x="248">
        <pitch>
          <step>F</step>
          <octave>3</octave>
        </pitch>
        <duration>24</duration>
        <voice>3</voice>
        <type>eighth</type>
        <stem default-y="-42">down</stem>
        <staff>2</staff>
        <beam number="1">end</beam>
      </note>
    </measure>
    <!--=======================================================-->
    <measure number="3" width="352">
      <note default-x="26">
        <pitch>
          <step>G</step>
          <octave>4</octave>
        </pitch>
        <duration>48</duration>
        <voice>1</voice>
        <type>quarter</type>
        <stem default-y="5.5">up</stem>
        <staff>1</staff>
      </note>
      <note default-x="106">
        <rest/>
        <duration>48</duration>
        <voice>1</voice>
        <type>quarter</type>
        <staff>1</staff>
      </note>
      <note default-x="187">
        <rest/>
        <duration>96</duration>
        <voice>1</voice>
        <type>half</type>
        <staff>1</staff>
      </note>
      <backup>
        <duration>192</duration>
      </backup>
      <note default-x="26">
        <pitch>
          <step>C</step>
          <octave>3</octave>
        </pitch>
        <duration>48</duration>
        <voice>3</voice>
        <type>quarter</type>
        <stem default-y="-53.5">down</stem>
        <staff>2</staff>
      </note>
      <note default-x="26">
        <chord/>
        <pitch>
          <step>E</step>
          <octave>3</octave>
        </pitch>
        <duration>48</duration>
        <voice>3</voice>
        <type>quarter</type>
        <stem>down</stem>
        <staff>2</staff>
      </note>
      <note default-x="26">
        <chord/>
        <pitch>
          <step>G</step>
          <octave>3</octave>
        </pitch>
        <duration>48</duration>
        <voice>3</voice>
        <type>quarter</type>
        <stem>down</stem>
        <staff>2</staff>
      </note>
      <note default-x="106">
        <pitch>
          <step>G</step>
          <octave>3</octave>
        </pitch>
        <duration>48</duration>
        <voice>3</voice>
        <type>quarter</type>
        <stem default-y="-40">down</stem>
        <staff>2</staff>
      </note>
      <note default-x="106">
        <chord/>
        <pitch>
          <step>B</step>
          <octave>3</octave>
        </pitch>
        <duration>48</duration>
        <voice>3</voice>
        <type>quarter</type>
        <stem>down</stem>
        <staff>2</staff>
      </note>
      <note default-x="106">
        <chord/>
        <pitch>
          <step>D</step>
          <octave>4</octave>
        </pitch>
        <duration>48</duration>
        <voice>3</voice>
        <type>quarter</type>
        <stem>down</stem>
        <staff>2</staff>
      </note>
      <direction placement="below">
        <direction-type>
          <words default-y="-73" font-style="italic" relative-x="-39">cresc.</words>
        </direction-type>
        <staff>2</staff>
      </direction>
      <note default-x="189">
        <pitch>
          <step>F</step>
          <octave>3</octave>
        </pitch>
        <duration>48</duration>
        <voice>3</voice>
        <type>quarter</type>
        <stem default-y="-45">down</stem>
        <staff>2</staff>
      </note>
      <note default-x="189">
        <chord/>
        <pitch>
          <step>A</step>
          <octave>3</octave>
        </pitch>
        <duration>48</duration>
        <voice>3</voice>
        <type>quarter</type>
        <stem>down</stem>
        <staff>2</staff>
      </note>
      <note default-x="189">
        <chord/>
        <pitch>
          <step>C</step>
          <octave>4</octave>
        </pitch>
        <duration>48</duration>
        <voice>3</voice>
        <type>quarter</type>
        <stem>down</stem>
        <staff>2</staff>
      </note>
      <note default-x="270">
        <pitch>
          <step>C</step>
          <octave>3</octave>
        </pitch>
        <duration>48</duration>
        <voice>3</voice>
        <type>quarter</type>
        <stem default-y="-53.5">down</stem>
        <staff>2</staff>
      </note>
      <note default-x="270">
        <chord/>
        <pitch>
          <step>E</step>
          <octave>3</octave>
        </pitch>
        <duration>48</duration>
        <voice>3</voice>
        <type>quarter</type>
        <stem>down</stem>
        <staff>2</staff>
      </note>
      <note default-x="270">
        <chord/>
        <pitch>
          <step>G</step>
          <octave>3</octave>
        </pitch>
        <duration>48</duration>
        <voice>3</voice>
        <type>quarter</type>
        <stem>down</stem>
        <staff>2</staff>
      </note>
      <note default-x="270">
        <chord/>
        <pitch>
          <step>C</step>
          <octave>4</octave>
        </pitch>
        <duration>48</duration>
        <voice>3</voice>
        <type>quarter</type>
        <stem>down</stem>
        <staff>2</staff>
      </note>
    </measure>
    <!--=======================================================-->
    <measure number="4" width="458">
      <print new-system="yes"/>
      <note>
        <rest/>
        <duration>192</duration>
        <voice>1</voice>
        <staff>1</staff>
      </note>
      <backup>
        <duration>192</duration>
      </backup>
      <note default-x="100">
        <pitch>
          <step>E</step>
          <octave>3</octave>
        </pitch>
        <duration>48</duration>
        <voice>3</voice>
        <type>quarter</type>
        <stem default-y="-50">down</stem>
        <staff>2</staff>
      </note>
      <note default-x="248">
        <rest/>
        <duration>48</duration>
        <voice>3</voice>
        <type>quarter</type>
        <staff>2</staff>
      </note>
      <note default-x="346">
        <rest/>
        <duration>96</duration>
        <voice>3</voice>
        <type>half</type>
        <staff>2</staff>
      </note>
    </measure>
    <!--=======================================================-->
    <measure number="5" width="274">
      <note>
        <rest/>
        <duration>192</duration>
        <voice>1</voice>
        <staff>1</staff>
      </note>
      <backup>
        <duration>192</duration>
      </backup>
      <note default-x="14">
        <pitch>
          <step>F</step>
          <octave>3</octave>
        </pitch>
        <duration>24</duration>
        <voice>3</voice>
        <type>eighth</type>
        <stem default-y="-45">down</stem>
        <staff>2</staff>
        <beam number="1">begin</beam>
      </note>
      <note default-x="43">
        <rest/>
        <duration>24</duration>
        <voice>3</voice>
        <type>eighth</type>
        <staff>2</staff>
      </note>
      <note default-x="74">
        <pitch>
          <step>F</step>
          <octave>3</octave>
        </pitch>
        <duration>24</duration>
        <voice>3</voice>
        <type>eighth</type>
        <stem default-y="-45">down</stem>
        <staff>2</staff>
        <beam number="1">end</beam>
      </note>
      <note default-x="98">
        <rest/>
        <duration>24</duration>
        <voice>3</voice>
        <type>eighth</type>
        <staff>2</staff>
      </note>
      <note default-x="122">
        <pitch>
          <step>E</step>
          <octave>3</octave>
        </pitch>
        <duration>12</duration>
        <voice>3</voice>
        <type>16th</type>
        <stem default-y="-50">down</stem>
        <staff>2</staff>
        <beam number="1">begin</beam>
        <beam number="2">forward hook</beam>
      </note>
      <note default-x="141">
        <rest/>
        <duration>12</duration>
        <voice>3</voice>
        <type>16th</type>
        <staff>2</staff>
      </note>
      <note default-x="159">
        <pitch>
          <step>E</step>
          <octave>3</octave>
        </pitch>
        <duration>12</duration>
        <voice>3</voice>
        <type>16th</type>
        <stem default-y="-50">down</stem>
        <staff>2</staff>
        <beam number="1">end</beam>
        <beam number="2">backward hook</beam>
      </note>
      <note default-x="177">
        <rest/>
        <duration>12</duration>
        <voice>3</voice>
        <type>16th</type>
        <staff>2</staff>
      </note>
      <note default-x="195">
        <pitch>
          <step>D</step>
          <octave>3</octave>
        </pitch>
        <duration>12</duration>
        <voice>3</voice>
        <type>16th</type>
        <stem default-y="-55">down</stem>
        <staff>2</staff>
        <beam number="1">begin</beam>
        <beam number="2">forward hook</beam>
      </note>
      <note default-x="213">
        <rest/>
        <duration>12</duration>
        <voice>3</voice>
        <type>16th</type>
        <staff>2</staff>
      </note>
      <note default-x="231">
        <pitch>
          <step>D</step>
          <octave>3</octave>
        </pitch>
        <duration>12</duration>
        <voice>3</voice>
        <type>16th</type>
        <stem default-y="-55">down</stem>
        <staff>2</staff>
        <beam number="1">end</beam>
        <beam number="2">backward hook</beam>
      </note>
      <note default-x="249">
        <rest/>
        <duration>12</duration>
        <voice>3</voice>
        <type>16th</type>
        <staff>2</staff>
      </note>
      <barline location="right">
        <bar-style>light-light</bar-style>
      </barline>
    </measure>
    <!--=======================================================-->
    <measure number="6" width="257">
      <note>
        <rest/>
        <duration>192</duration>
        <voice>1</voice>
        <staff>1</staff>
      </note>
      <backup>
        <duration>192</duration>
      </backup>
      <note default-x="16">
        <rest/>
        <duration>36</duration>
        <voice>3</voice>
        <type>eighth</type>
        <dot/>
        <staff>2</staff>
      </note>
      <note default-x="49">
        <pitch>
          <step>D</step>
          <octave>3</octave>
        </pitch>
        <duration>12</duration>
        <voice>3</voice>
        <type>16th</type>
        <stem default-y="-55.5">down</stem>
        <staff>2</staff>
      </note>
      <note default-x="74">
        <pitch>
          <step>E</step>
          <octave>3</octave>
        </pitch>
        <duration>12</duration>
        <voice>3</voice>
        <type>16th</type>
        <stem default-y="-50">down</stem>
        <staff>2</staff>
        <beam number="1">begin</beam>
        <beam number="2">begin</beam>
      </note>
      <note default-x="92">
        <pitch>
          <step>F</step>
          <octave>3</octave>
        </pitch>
        <duration>12</duration>
        <voice>3</voice>
        <type>16th</type>
        <stem default-y="-48">down</stem>
        <staff>2</staff>
        <beam number="1">continue</beam>
        <beam number="2">continue</beam>
      </note>
      <note default-x="111">
        <pitch>
          <step>G</step>
          <octave>3</octave>
        </pitch>
        <duration>12</duration>
        <voice>3</voice>
        <type>16th</type>
        <stem default-y="-47">down</stem>
        <staff>2</staff>
        <beam number="1">continue</beam>
        <beam number="2">continue</beam>
      </note>
      <note default-x="130">
        <pitch>
          <step>A</step>
          <octave>3</octave>
        </pitch>
        <duration>12</duration>
        <voice>3</voice>
        <type>16th</type>
        <stem default-y="-45">down</stem>
        <staff>2</staff>
        <beam number="1">end</beam>
        <beam number="2">end</beam>
      </note>
      <note default-x="148">
        <pitch>
          <step>B</step>
          <octave>3</octave>
        </pitch>
        <duration>24</duration>
        <voice>3</voice>
        <type>eighth</type>
        <stem default-y="-45">down</stem>
        <staff>2</staff>
        <beam number="1">begin</beam>
      </note>
      <note default-x="179">
        <pitch>
          <step>C</step>
          <octave>4</octave>
        </pitch>
        <duration>24</duration>
        <voice>3</voice>
        <type>eighth</type>
        <stem default-y="-47">down</stem>
        <staff>2</staff>
        <beam number="1">continue</beam>
      </note>
      <note default-x="209">
        <pitch>
          <step>G</step>
          <octave>3</octave>
        </pitch>
        <duration>24</duration>
        <voice>3</voice>
        <type>eighth</type>
        <stem default-y="-48.5">down</stem>
        <staff>2</staff>
        <beam number="1">continue</beam>
      </note>
      <note default-x="233">
        <pitch>
          <step>E</step>
          <octave>3</octave>
        </pitch>
        <duration>24</duration>
        <voice>3</voice>
        <type>eighth</type>
        <stem default-y="-50">down</stem>
        <staff>2</staff>
        <beam number="1">end</beam>
      </note>
    </measure>
    <!--=======================================================-->
    <measure number="7" width="271">
      <print new-page="yes"/>
      <note default-x="102">
        <pitch>
          <step>C</step>
          <octave>5</octave>
        </pitch>
        <duration>48</duration>
        <voice>1</voice>
        <type>quarter</type>
        <stem default-y="14">up</stem>
        <staff>1</staff>
      </note>
      <note default-x="142">
        <pitch>
          <step>B</step>
          <octave>4</octave>
        </pitch>
        <duration>48</duration>
        <voice>1</voice>
        <type>quarter</type>
        <stem default-y="16">up</stem>
        <staff>1</staff>
      </note>
      <note default-x="190">
        <rest>
          <display-step>A</display-step>
          <display-octave>5</display-octave>
        </rest>
        <duration>48</duration>
        <voice>1</voice>
        <type>quarter</type>
        <staff>1</staff>
      </note>
      <note default-x="229">
        <pitch>
          <step>G</step>
          <octave>4</octave>
        </pitch>
        <duration>48</duration>
        <voice>1</voice>
        <type>quarter</type>
        <stem default-y="5">up</stem>
        <staff>1</staff>
      </note>
      <backup>
        <duration>192</duration>
      </backup>
      <note default-x="102">
        <pitch>
          <step>C</step>
          <octave>4</octave>
        </pitch>
        <duration>24</duration>
        <voice>2</voice>
        <type>eighth</type>
        <stem default-y="-85">down</stem>
        <staff>1</staff>
        <beam number="1">begin</beam>
      </note>
      <note default-x="124">
        <pitch>
          <step>D</step>
          <octave>4</octave>
        </pitch>
        <duration>24</duration>
        <voice>2</voice>
        <type>eighth</type>
        <stem default-y="-80">down</stem>
        <staff>1</staff>
        <beam number="1">end</beam>
      </note>
      <note default-x="142">
        <pitch>
          <step>E</step>
          <octave>4</octave>
        </pitch>
        <duration>48</duration>
        <voice>2</voice>
        <type>quarter</type>
        <stem default-y="-69">down</stem>
        <staff>1</staff>
      </note>
      <note default-x="142">
        <chord/>
        <pitch>
          <step>G</step>
          <octave>4</octave>
        </pitch>
        <duration>48</duration>
        <voice>2</voice>
        <type>quarter</type>
        <stem>down</stem>
        <staff>1</staff>
      </note>
      <note default-x="190">
        <rest>
          <display-step>C</display-step>
          <display-octave>4</display-octave>
        </rest>
        <duration>24</duration>
        <voice>2</voice>
        <type>eighth</type>
        <staff>1</staff>
      </note>
      <note default-x="208">
        <pitch>
          <step>C</step>
          <octave>4</octave>
        </pitch>
        <duration>24</duration>
        <voice>2</voice>
        <type>eighth</type>
        <stem default-y="-85">down</stem>
        <staff>1</staff>
        <beam number="1">begin</beam>
      </note>
      <note default-x="229">
        <pitch>
          <step>G</step>
          <octave>4</octave>
        </pitch>
        <duration>24</duration>
        <voice>2</voice>
        <type>eighth</type>
        <stem default-y="-82.5">down</stem>
        <staff>1</staff>
        <beam number="1">continue</beam>
      </note>
      <note default-x="250">
        <pitch>
          <step>A</step>
          <octave>4</octave>
        </pitch>
        <duration>24</duration>
        <voice>2</voice>
        <type>eighth</type>
        <stem default-y="-80">down</stem>
        <staff>1</staff>
        <beam number="1">end</beam>
      </note>
      <backup>
        <duration>192</duration>
      </backup>
      <note default-x="102">
        <pitch>
          <step>C</step>
          <octave>3</octave>
        </pitch>
        <duration>48</duration>
        <voice>3</voice>
        <type>quarter</type>
        <stem default-y="11">up</stem>
        <staff>2</staff>
      </note>
      <note default-x="142">
        <rest/>
        <duration>48</duration>
        <voice>3</voice>
        <type>quarter</type>
        <staff>2</staff>
      </note>
      <note default-x="188">
        <rest/>
        <duration>96</duration>
        <voice>3</voice>
        <type>half</type>
        <staff>2</staff>
      </note>
    </measure>
    <!--=======================================================-->
    <measure number="8" width="236">
      <note>
        <rest/>
        <duration>192</duration>
        <voice>1</voice>
        <staff>1</staff>
      </note>
      <backup>
        <duration>192</duration>
      </backup>
      <note>
        <rest/>
        <duration>192</duration>
        <voice>3</voice>
        <staff>2</staff>
      </note>
    </measure>
    <!--=======================================================-->
    <measure number="9" width="111">
      <note>
        <rest/>
        <duration>192</duration>
        <voice>1</voice>
        <staff>1</staff>
      </note>
      <backup>
        <duration>192</duration>
      </backup>
      <note>
        <rest/>
        <duration>192</duration>
        <voice>3</voice>
        <staff>2</staff>
      </note>
    </measure>
    <!--=======================================================-->
    <measure number="10" width="227">
      <attributes>
        <key>
          <fifths>4</fifths>
          <mode>major</mode>
        </key>
      </attributes>
      <note>
        <rest/>
        <duration>192</duration>
        <voice>1</voice>
        <staff>1</staff>
      </note>
      <backup>
        <duration>192</duration>
      </backup>
      <note>
        <rest/>
        <duration>192</duration>
        <voice>3</voice>
        <staff>2</staff>
      </note>
    </measure>
    <!--=======================================================-->
    <measure number="11" width="144">
      <note>
        <rest/>
        <duration>192</duration>
        <voice>1</voice>
        <staff>1</staff>
      </note>
      <backup>
        <duration>192</duration>
      </backup>
      <note>
        <rest/>
        <duration>192</duration>
        <voice>3</voice>
        <staff>2</staff>
      </note>
    </measure>
    <!--=======================================================-->
    <measure number="12" width="275">
      <print new-system="yes">
        <staff-layout number="2">
          <staff-distance>0</staff-distance>
        </staff-layout>
      </print>
      <attributes>
        <staff-details number="2" print-object="no"/>
      </attributes>
      <note>
        <rest/>
        <duration>192</duration>
        <voice>1</voice>
        <staff>1</staff>
      </note>
      <backup>
        <duration>192</duration>
      </backup>
      <note>
        <rest/>
        <duration>192</duration>
        <voice>3</voice>
        <staff>2</staff>
      </note>
    </measure>
    <!--=======================================================-->
    <measure number="13" width="138">
      <note default-x="13">
        <pitch>
          <step>G</step>
          <alter>1</alter>
          <octave>4</octave>
        </pitch>
        <duration>192</duration>
        <tie type="start"/>
        <voice>1</voice>
        <type>whole</type>
        <staff>1</staff>
        <notations>
          <tied type="start"/>
        </notations>
      </note>
      <direction placement="below">
        <direction-type>
          <wedge default-y="-66" spread="15" type="diminuendo"/>
        </direction-type>
        <offset>-76</offset>
        <staff>1</staff>
      </direction>
      <backup>
        <duration>192</duration>
      </backup>
      <note>
        <rest/>
        <duration>192</duration>
        <voice>3</voice>
        <staff>2</staff>
      </note>
    </measure>
    <!--=======================================================-->
    <measure number="14" width="164">
      <note default-x="26">
        <pitch>
          <step>G</step>
          <alter>1</alter>
          <octave>4</octave>
        </pitch>
        <duration>192</duration>
        <tie type="stop"/>
        <tie type="start"/>
        <voice>1</voice>
        <type>whole</type>
        <staff>1</staff>
        <notations>
          <tied type="stop"/>
          <tied type="start"/>
        </notations>
      </note>
      <backup>
        <duration>192</duration>
      </backup>
      <note>
        <rest/>
        <duration>192</duration>
        <voice>3</voice>
        <staff>2</staff>
      </note>
    </measure>
    <!--=======================================================-->
    <measure number="15" width="228">
      <direction>
        <direction-type>
          <wedge spread="0" type="stop"/>
        </direction-type>
        <offset>36</offset>
        <staff>1</staff>
      </direction>
      <note default-x="14">
        <pitch>
          <step>G</step>
          <alter>1</alter>
          <octave>4</octave>
        </pitch>
        <duration>192</duration>
        <tie type="stop"/>
        <voice>1</voice>
        <type>whole</type>
        <staff>1</staff>
        <notations>
          <tied type="stop"/>
        </notations>
      </note>
      <backup>
        <duration>192</duration>
      </backup>
      <note>
        <rest/>
        <duration>192</duration>
        <voice>3</voice>
        <staff>2</staff>
      </note>
    </measure>
    <!--=======================================================-->
    <measure number="16" width="183">
      <note>
        <rest/>
        <duration>192</duration>
        <voice>1</voice>
        <staff>1</staff>
      </note>
      <backup>
        <duration>192</duration>
      </backup>
      <note>
        <rest/>
        <duration>192</duration>
        <voice>3</voice>
        <staff>2</staff>
      </note>
    </measure>
    <!--=======================================================-->
    <measure number="17" width="392">
      <print new-system="yes"/>
      <attributes>
        <time>
          <beats>3</beats>
          <beat-type>4</beat-type>
        </time>
        <staff-details number="2" print-object="yes"/>
      </attributes>
      <direction placement="below">
        <direction-type>
          <dynamics default-y="-73">
            <mf/>
          </dynamics>
        </direction-type>
        <offset>48</offset>
        <staff>1</staff>
        <sound dynamics="83"/>
      </direction>
      <note default-x="166">
        <pitch>
          <step>A</step>
          <octave>4</octave>
        </pitch>
        <duration>48</duration>
        <voice>1</voice>
        <type>quarter</type>
        <stem default-y="10">up</stem>
        <staff>1</staff>
      </note>
      <note default-x="252">
        <pitch>
          <step>C</step>
          <alter>1</alter>
          <octave>5</octave>
        </pitch>
        <duration>48</duration>
        <voice>1</voice>
        <type>quarter</type>
        <stem default-y="-50.5">down</stem>
        <staff>1</staff>
      </note>
      <note default-x="322">
        <pitch>
          <step>G</step>
          <alter>1</alter>
          <octave>4</octave>
        </pitch>
        <duration>48</duration>
        <voice>1</voice>
        <type>quarter</type>
        <stem default-y="5.5">up</stem>
        <staff>1</staff>
      </note>
      <backup>
        <duration>144</duration>
      </backup>
      <note default-x="166">
        <pitch>
          <step>D</step>
          <alter>1</alter>
          <octave>3</octave>
        </pitch>
        <duration>48</duration>
        <voice>3</voice>
        <type>quarter</type>
        <stem default-y="-55.5">down</stem>
        <staff>2</staff>
      </note>
      <note default-x="252">
        <rest/>
        <duration>48</duration>
        <voice>3</voice>
        <type>quarter</type>
        <staff>2</staff>
      </note>
      <note default-x="322">
        <rest/>
        <duration>48</duration>
        <voice>3</voice>
        <type>quarter</type>
        <staff>2</staff>
      </note>
    </measure>
    <!--=======================================================-->
    <measure number="18" width="217">
      <note>
        <rest/>
        <duration>144</duration>
        <voice>1</voice>
        <staff>1</staff>
      </note>
      <backup>
        <duration>144</duration>
      </backup>
      <note>
        <rest/>
        <duration>144</duration>
        <voice>3</voice>
        <staff>2</staff>
      </note>
    </measure>
    <!--=======================================================-->
    <measure number="19" width="230">
      <attributes>
        <time>
          <beats>6</beats>
          <beat-type>8</beat-type>
        </time>
      </attributes>
      <note>
        <rest/>
        <duration>144</duration>
        <voice>1</voice>
        <staff>1</staff>
      </note>
      <backup>
        <duration>144</duration>
      </backup>
      <note>
        <rest/>
        <duration>144</duration>
        <voice>3</voice>
        <staff>2</staff>
      </note>
    </measure>
    <!--=======================================================-->
    <measure number="20" width="150">
      <note>
        <rest/>
        <duration>144</duration>
        <voice>1</voice>
        <staff>1</staff>
      </note>
      <backup>
        <duration>144</duration>
      </backup>
      <note>
        <rest/>
        <duration>144</duration>
        <voice>3</voice>
        <staff>2</staff>
      </note>
    </measure>
    <!--=======================================================-->
    <measure number="21" width="989">
      <print new-page="yes"/>
      <note default-x="137">
        <pitch>
          <step>B</step>
          <octave>3</octave>
        </pitch>
        <duration>48</duration>
        <voice>1</voice>
        <type>quarter</type>
        <stem default-y="-20">up</stem>
        <staff>1</staff>
      </note>
      <note default-x="397">
        <rest/>
        <duration>24</duration>
        <voice>1</voice>
        <type>eighth</type>
        <staff>1</staff>
      </note>
      <note default-x="558">
        <rest/>
        <duration>48</duration>
        <voice>1</voice>
        <type>quarter</type>
        <staff>1</staff>
      </note>
      <note default-x="818">
        <rest/>
        <duration>24</duration>
        <voice>1</voice>
        <type>eighth</type>
        <staff>1</staff>
      </note>
      <backup>
        <duration>144</duration>
      </backup>
      <note default-x="137">
        <pitch>
          <step>B</step>
          <octave>3</octave>
        </pitch>
        <duration>48</duration>
        <voice>3</voice>
        <type>quarter</type>
        <stem default-y="-30">down</stem>
        <staff>2</staff>
      </note>
      <note default-x="397">
        <rest/>
        <duration>24</duration>
        <voice>3</voice>
        <type>eighth</type>
        <staff>2</staff>
      </note>
      <note default-x="558">
        <rest/>
        <duration>48</duration>
        <voice>3</voice>
        <type>quarter</type>
        <staff>2</staff>
      </note>
      <note default-x="818">
        <rest/>
        <duration>24</duration>
        <voice>3</voice>
        <type>eighth</type>
        <staff>2</staff>
      </note>
      <barline location="right">
        <bar-style>light-heavy</bar-style>
      </barline>
    </measure>
  </part>
  <!--=========================================================-->
</score-partwise>
